<?xml version="1.0" encoding="UTF-8"?>
<svg width="499px" height="499px" viewBox="0 0 499 499" version="1.1" xmlns="http://www.w3.org/2000/svg" xmlns:xlink="http://www.w3.org/1999/xlink">
    <!-- Generator: Sketch 55.1 (78136) - https://sketchapp.com -->
    <title>logo-large@1x</title>
    <desc>Created with Sketch.</desc>
    <defs>
        <polygon id="path-1" points="0 0 499 0 499 499 0 499"></polygon>
    </defs>
    <g id="Symbols" stroke="none" stroke-width="1" fill="none" fill-rule="evenodd">
        <g id="Logo">
            <polygon id="Fill-1" fill="#FFFFFF" points="386.202836 244.068097 113.797164 244.068097 113.797164 190 103 190 103 309 113.797164 309 113.797164 254.929911 386.202836 254.929911 386.202836 309 397 309 397 190 386.202836 190"></polygon>
            <polygon id="Fill-3" fill="#FFFFFF" points="314.337502 318 248.499014 367.558608 184.677016 319.517689 182.559998 318.009946 176 319.625101 176 402 186.752641 402 186.752641 334.615013 248.499014 381.094483 310.24933 334.613024 310.24933 402 321 402 321 323.885768 320.911298 319.58134"></polygon>
            <polygon id="Fill-5" fill="#FFFFFF" points="244.567424 197 255.432576 197 255.432576 133.285455 321 84.659268 314.501627 76 250 123.83592 185.498373 76 179 84.659268 244.567424 133.285455"></polygon>
            <mask id="mask-2" fill="white">
                <use xlink:href="#path-1"></use>
            </mask>
            <g id="Clip-8"></g>
            <path d="M249.499005,0 C111.924676,0 0,111.924229 0,249.5 C0,387.075771 111.924676,499 249.499005,499 C387.075324,499 499,387.075771 499,249.5 C499,111.924229 387.075324,0 249.499005,0 M249.499005,488.145511 C117.909197,488.145511 10.8545322,381.089283 10.8545322,249.5 C10.8545322,117.910717 117.909197,10.8544889 249.499005,10.8544889 C381.088813,10.8544889 488.145468,117.910717 488.145468,249.5 C488.145468,381.089283 381.088813,488.145511 249.499005,488.145511" id="Fill-7" fill="#FFFFFF" mask="url(#mask-2)"></path>
        </g>
    </g>
</svg>