<?xml version="1.0" encoding="UTF-8"?>
<svg width="114px" height="114px" viewBox="0 0 114 114" version="1.1" xmlns="http://www.w3.org/2000/svg" xmlns:xlink="http://www.w3.org/1999/xlink">
    <!-- Generator: Sketch 55.1 (78136) - https://sketchapp.com -->
    <title>logo-small@1x</title>
    <desc>Created with Sketch.</desc>
    <defs>
        <polygon id="path-1" points="0 0 114 0 114 114 0 114"></polygon>
    </defs>
    <g id="Symbols" stroke="none" stroke-width="1" fill="none" fill-rule="evenodd">
        <g id="Group-3">
            <mask id="mask-2" fill="white">
                <use xlink:href="#path-1"></use>
            </mask>
            <g id="Clip-2"></g>
            <path d="M57,0 C25.572375,0 0,25.5694161 0,56.9980927 C0,88.4305839 25.572375,114 57,114 C88.427625,114 114,88.4305839 114,56.9980927 C114,25.5694161 88.427625,0 57,0 L57,0 Z M42.2798635,17.1963192 L57,28.178618 L71.7201365,17.1963192 L73.2039751,19.1837377 L58.2397109,30.3453237 L58.2397109,44.9744019 L55.7602891,44.9744019 L55.7602891,30.3453237 L40.7960249,19.1837377 L42.2798635,17.1963192 Z M73.7227464,91.7950811 L71.2433246,91.7950811 L71.2433246,76.3916346 L57,87.0153589 L42.7566754,76.3916346 L42.7566754,91.7950811 L40.2772536,91.7950811 L40.2772536,72.9661034 L41.7916081,72.596085 L42.2798635,72.939401 L57,83.9216998 L72.1893194,72.5922704 L73.703674,72.9622888 L73.7227464,73.9388322 L73.7227464,91.7950811 Z M90.7582815,70.5857788 L88.2788597,70.5857788 L88.2788597,58.2416597 L25.7173258,58.2416597 L25.7173258,70.5857788 L23.237904,70.5857788 L23.237904,43.4142212 L25.7173258,43.4142212 L25.7173258,55.7583403 L88.2788597,55.7583403 L88.2788597,43.4142212 L90.7582815,43.4142212 L90.7582815,70.5857788 Z" id="Fill-1" fill="#FEFEFE" mask="url(#mask-2)"></path>
        </g>
    </g>
</svg>